<mxfile host="app.diagrams.net" agent="Mozilla/5.0 (Windows NT 10.0; Win64; x64) AppleWebKit/537.36 (KHTML, like Gecko) Chrome/135.0.0.0 Safari/537.36 Edg/135.0.0.0" version="26.2.12">
  <diagram name="第 1 页" id="7cwRjvhEC5BrIwOgkhqA">
    <mxGraphModel dx="523" dy="343" grid="1" gridSize="10" guides="1" tooltips="1" connect="1" arrows="1" fold="1" page="1" pageScale="1" pageWidth="827" pageHeight="1169" math="0" shadow="0">
      <root>
        <mxCell id="0" />
        <mxCell id="1" parent="0" />
        <mxCell id="bgVyCXlUhRMSVjyGg1Y9-1" value="" style="ellipse;whiteSpace=wrap;html=1;fillColor=#CCE5FF;strokeColor=#000000;" vertex="1" parent="1">
          <mxGeometry x="130" y="100" width="330" height="220" as="geometry" />
        </mxCell>
        <mxCell id="bgVyCXlUhRMSVjyGg1Y9-2" value="" style="ellipse;whiteSpace=wrap;html=1;fillColor=#99CCFF;strokeColor=#000000;" vertex="1" parent="1">
          <mxGeometry x="160" y="130" width="130" height="110" as="geometry" />
        </mxCell>
        <mxCell id="bgVyCXlUhRMSVjyGg1Y9-3" value="" style="ellipse;whiteSpace=wrap;html=1;fillColor=#3399FF;" vertex="1" parent="1">
          <mxGeometry x="187.51" y="140" width="82.49" height="70" as="geometry" />
        </mxCell>
        <mxCell id="bgVyCXlUhRMSVjyGg1Y9-4" value="" style="ellipse;whiteSpace=wrap;html=1;fillColor=#66B2FF;" vertex="1" parent="1">
          <mxGeometry x="305.01" y="170" width="130" height="100" as="geometry" />
        </mxCell>
        <mxCell id="bgVyCXlUhRMSVjyGg1Y9-6" value="" style="ellipse;whiteSpace=wrap;html=1;fillColor=#3399FF;" vertex="1" parent="1">
          <mxGeometry x="335.01" y="190" width="70" height="55" as="geometry" />
        </mxCell>
        <mxCell id="bgVyCXlUhRMSVjyGg1Y9-5" value="" style="ellipse;whiteSpace=wrap;html=1;fillColor=#0066CC;" vertex="1" parent="1">
          <mxGeometry x="360" y="200" width="40" height="35" as="geometry" />
        </mxCell>
        <mxCell id="bgVyCXlUhRMSVjyGg1Y9-7" value="" style="ellipse;whiteSpace=wrap;html=1;fillColor=#007FFF;" vertex="1" parent="1">
          <mxGeometry x="220" y="150" width="37.49" height="40" as="geometry" />
        </mxCell>
        <mxCell id="bgVyCXlUhRMSVjyGg1Y9-8" value="" style="ellipse;whiteSpace=wrap;html=1;fillColor=#004C99;" vertex="1" parent="1">
          <mxGeometry x="372" y="208.75" width="16" height="17.5" as="geometry" />
        </mxCell>
      </root>
    </mxGraphModel>
  </diagram>
</mxfile>
